<svg xmlns="http://www.w3.org/2000/svg" viewBox="0 0 170.1 110.16"><defs><style>.cls-1{fill:#00694b}</style></defs><title>Ресурс 1</title><g id="Слой_2" data-name="Слой 2"><g id="Слой_1-2" data-name="Слой 1"><path class="cls-1" d="M31.8 28.76h.14v-.66h-7.07v.65l.87.08c1.75.15 2.72.23 3 .6.12.17.1.46-.05.95l-5.42 16.8-5.98-16.72c-.18-.5-.21-.83-.08-1 .22-.36 1-.51 2.24-.66h.16v-.7h-8.83v.64h.15c1.5.21 1.77.58 2.1 1.51l7.49 20.15h2.38l6.43-20c.37-1.14.77-1.32 2.48-1.63zM41.93 49.61h-.16c-2.15-.16-2.24-.2-2.24-1.2V30c0-1 0-1 2.24-1.19h.16v-.71h-8.74v.65h.16c2.24.16 2.24.24 2.24 1.19v18.47c0 1-.08 1-2.24 1.2h-.16v.65h8.73v-.65zM61.74 48.63l.43-4.74h-.64v.13c-.25 1-1.72 5.88-6.56 5.88-4.25 0-6.9-4.11-6.9-10.73s2.64-10.73 6.9-10.73c3.5 0 5.81 3 6.47 5.88v.14h.64l-.33-4.73h-.08a12.65 12.65 0 0 0-6.73-1.9c-6.3 0-11.05 4.9-11.05 11.39s4.75 11.39 11.05 11.39a12.65 12.65 0 0 0 6.73-1.9h.07zM64.15 33.49c.65-3 2.19-4.72 4.35-4.72h1.6v19.64c0 1-.08 1-2.24 1.2h-.16v.65h8.73v-.65h-.16c-2.15-.16-2.24-.2-2.24-1.2V28.76h1.6c2.15 0 3.7 1.68 4.34 4.72v.14h.64l-.17-5.52H63.66l-.17 5.52h.63v-.14zM93.16 28.45c4 0 6.87 4.41 6.87 10.73s-2.83 10.73-6.87 10.73-6.87-4.41-6.87-10.73 2.82-10.73 6.87-10.73zm0 22.12c6.28 0 11-4.9 11-11.39s-4.74-11.39-11-11.39-11 4.9-11 11.39 4.74 11.39 11 11.39zM114.29 39.79h-1.73v-11H115c3.81 0 4.22 3.93 4.22 5.62 0 3.63-1.6 5.4-4.9 5.4zm.67 9.83h-.16c-2.15-.16-2.24-.2-2.24-1.2v-8h1.73a9.3 9.3 0 0 1 2.58 3.21l1.74 3.24a26 26 0 0 0 2.1 3.33l.05.07h5.59v-.64h-.15c-.88-.12-1.84-.47-2.93-2.16l-2.37-3.86a6.74 6.74 0 0 0-4.56-3.2c6.46-.63 7-4.84 7-6.18 0-3.7-2.94-6.1-7.5-6.1h-9.62v.65h.16c2.24.16 2.24.24 2.24 1.19v18.44c0 1-.08 1-2.24 1.2h-.16v.65H115v-.65zM136.72 49.61h-.16c-2.15-.16-2.24-.2-2.24-1.2V30c0-1 0-1 2.24-1.19h.16v-.71H128v.65h.16c2.24.16 2.24.24 2.24 1.19v18.47c0 1-.08 1-2.24 1.2H128v.65h8.73v-.65zM143.37 42.06l3.5-10.87 3.86 10.87zm7.28 7.54h-.16v.64h8.83v-.64h-.15c-1.5-.21-1.76-.56-2.1-1.51l-7.49-20.15h-2.38l-6.43 20c-.37 1.14-.77 1.32-2.48 1.63h-.14v.63h7.08v-.65l-.88-.08c-1.75-.15-2.71-.23-3-.6-.12-.17-.1-.46.06-1l1.71-5.27h7.79l1.86 5.18c.19.5.21.83.08 1s-1 .51-2.24.66zM10 78.09H6.33V57.25H10c4.11 0 6.87 4.19 6.87 10.42S14.13 78.09 10 78.09zm0-21.5H0v.65h.16c2.24.16 2.24.24 2.24 1.19v18.46c0 1-.08 1-2.24 1.2H0v.65h10a11.08 11.08 0 0 0 0-22.16zM37.49 57.24h.17c3.59.16 3.7.25 3.7 1.19v11.82c0 4.72-2.42 7.65-6.3 7.65s-6-2.4-6-6.77V58.44c0-1 0-1 2.24-1.19h.16v-.65h-8.77v.65h.16c2.24.16 2.24.24 2.24 1.19v11.72c0 5.74 3.05 8.9 8.59 8.9 5.3 0 8.34-3.24 8.34-8.9V58.44c0-1 .07-1 2.79-1.19H45v-.65h-7.51v.66zM70.62 72.92l-6.88-16.33h-6.65v.65h.16c2.61.16 2.61.24 2.61 1.19v18.46c0 1 0 1-2.61 1.2h-.16v.65h7.55v-.66h-.17c-3.65-.16-3.94-.25-3.94-1.2V59l8.34 19.9h.46l7-19.73-.12 17.72c0 1-.08 1-2.24 1.2h-.17v.65h8.73v-.64h-.16c-2.15-.16-2.24-.2-2.24-1.2V58.44c0-1 0-1 2.24-1.19h.16v-.65h-6l-5.91 16.32zM95.51 78.4c-4 0-6.87-4.41-6.87-10.73s2.82-10.73 6.87-10.73 6.87 4.41 6.87 10.73-2.83 10.73-6.87 10.73zm0-22.12c-6.28 0-11 4.9-11 11.39s4.74 11.39 11 11.39 11-4.9 11-11.39-4.74-11.39-11-11.39zM120.83 57.24h.17c3.18.16 3.63.25 3.63 1.19v13.94l-11-15.79h-6.5v.65h.17c2.7.16 2.92 1 2.92 1.94v17.7c0 1-.33 1-2.92 1.2h-.16v.65h7.55v-.65h-.17c-3.18-.16-3.63-.25-3.63-1.2V59.43l13.83 19.47h.58V58.44c0-1 .33-1 2.92-1.19h.16v-.65h-7.55v.65zM140.21 78.09h-3.69V57.25h3.69c4.11 0 6.87 4.19 6.87 10.42s-2.76 10.42-6.87 10.42zm0-21.5h-10v.65h.16c2.24.16 2.24.24 2.24 1.19v18.46c0 1-.08 1-2.24 1.2h-.16v.65h10a11.08 11.08 0 0 0 0-22.16zM169.46 73.22v.13c-.85 3.18-2.49 4.73-5 4.73h-4.78v-10.3h3c1.89 0 2.93 1.13 3.19 3.46v.16h.65v-7.9h-.65v.16c-.26 2.33-1.31 3.46-3.19 3.46h-3v-9.87h5c2.3 0 3.72 1.5 4.47 4.73v.14h.63l-.17-5.52h-16.33v.65h.16c2.24.16 2.24.24 2.24 1.19v18.45c0 1-.08 1-2.24 1.2h-.16v.65h16.48l.33-5.53zM84.89 11.89c-.59-7.5-4.43-10.73-4.46-10.76l.2-.24s4 3.34 4.58 11h-.31z"/><path class="cls-1" d="M78.48 3.79c.82.36 5 2.31 6.3 5.82C84.3 4 82.51.91 82.16.36a6.47 6.47 0 0 0-1.83 1 6.55 6.55 0 0 0-1.85 2.43zm6.41 8.09v-.22C84.7 6.63 78.29 4 78.22 4h-.14l.05-.14a6.86 6.86 0 0 1 2-2.7 6.12 6.12 0 0 1 2-1.09h.1l.06.09S85 4 85.2 11.66v.22z"/><path class="cls-1" d="M84.89 11.88c0-5.52-5.7-9.48-5.76-9.52l.17-.26c.06 0 5.89 4.1 5.89 9.78z"/><path class="cls-1" d="M85.2 11.89h-.31c.6-7.64 4.54-10.95 4.58-11l.2.24S85.79 4.4 85.2 11.89z"/><path class="cls-1" d="M87.94.36c-.36.56-2.15 3.64-2.63 9.26 1.34-3.52 5.47-5.46 6.3-5.82a6.55 6.55 0 0 0-1.85-2.43 6.44 6.44 0 0 0-1.83-1zM85.2 11.89h-.31v-.22C85.07 4 87.72.12 87.74.09L87.8 0h.1a6.12 6.12 0 0 1 2 1.09 6.86 6.86 0 0 1 2 2.7L92 4h-.13c-.07 0-6.48 2.61-6.67 7.65v.21z"/><path class="cls-1" d="M85.2 11.88h-.31c0-5.68 5.84-9.74 5.9-9.78l.17.26c-.06 0-5.75 4-5.76 9.52z"/><path class="cls-1" d="M85.21 9.62h-.32v6.76h.32V9.62zM62.45 8.5v1.58h1.91v.38h-1.91v1.55h1.91v.38h-2.32V8.12h2.32v.38h-1.91zM66.15 11.07a1 1 0 0 0 .3.75 1.29 1.29 0 0 0 1.52.07.72.72 0 0 0 .27-.59.73.73 0 0 0-.08-.37.75.75 0 0 0-.22-.24 1.18 1.18 0 0 0-.31-.15l-.33-.1-.53-.17a1.74 1.74 0 0 1-.44-.23 1 1 0 0 1-.3-.35 1.15 1.15 0 0 1-.11-.54 1 1 0 0 1 .36-.8 1.24 1.24 0 0 1 .42-.23 1.73 1.73 0 0 1 .53-.12 1.5 1.5 0 0 1 .54.09 1.23 1.23 0 0 1 .42.26 1.14 1.14 0 0 1 .27.4 1.46 1.46 0 0 1 .1.53h-.41a1 1 0 0 0-.25-.66.87.87 0 0 0-.65-.24 1 1 0 0 0-.68.2.65.65 0 0 0-.24.53.72.72 0 0 0 .08.36.71.71 0 0 0 .21.24 1.14 1.14 0 0 0 .31.15l.36.11.49.16a1.85 1.85 0 0 1 .44.23 1.09 1.09 0 0 1 .32.35 1 1 0 0 1 .13.53 1.22 1.22 0 0 1-.11.53 1.07 1.07 0 0 1-.3.38 1.3 1.3 0 0 1-.45.24 1.94 1.94 0 0 1-.58.08 1.69 1.69 0 0 1-.59-.1 1.41 1.41 0 0 1-.47-.28 1.24 1.24 0 0 1-.31-.44 1.51 1.51 0 0 1-.11-.59zM70.58 8.5h-1.15v-.38h2.72v.38h-1.16v3.89h-.41V8.5zM72.57 12.05a.36.36 0 0 1 .1-.26.35.35 0 0 1 .26-.1.37.37 0 0 1 .27.1.37.37 0 0 1 0 .52.36.36 0 0 1-.27.11.34.34 0 0 1-.26-.11.36.36 0 0 1-.1-.26zM95 8.83a2.1 2.1 0 0 0 .45 0 .6.6 0 0 0 .27-.12.41.41 0 0 0 .13-.22 1.42 1.42 0 0 0 0-.33h.4v4.27h-.43V9.17H95v-.34zM99.1 8.44a1 1 0 0 0-.42.08 1 1 0 0 0-.32.22 1 1 0 0 0-.2.33 1.16 1.16 0 0 0 0 .79 1 1 0 0 0 .2.33 1 1 0 0 0 .32.23 1.08 1.08 0 0 0 .83 0 1 1 0 0 0 .32-.23 1 1 0 0 0 .2-.33 1.16 1.16 0 0 0 0-.79 1 1 0 0 0-.2-.33 1 1 0 0 0-.32-.22 1 1 0 0 0-.41-.08zm0-.38a1.46 1.46 0 0 1 .58.11 1.37 1.37 0 0 1 .45.31 1.39 1.39 0 0 1 .29.45 1.48 1.48 0 0 1 .1.54 1.44 1.44 0 0 1-.06.43 1.66 1.66 0 0 1-.17.38L99 12.39h-.48l1-1.64a.37.37 0 0 1-.17.1.74.74 0 0 1-.21 0 1.63 1.63 0 0 1-.61-.11 1.38 1.38 0 0 1-.47-.3 1.29 1.29 0 0 1-.3-.45 1.49 1.49 0 0 1-.1-.56 1.47 1.47 0 0 1 .1-.54 1.36 1.36 0 0 1 .29-.45 1.33 1.33 0 0 1 .45-.31 1.49 1.49 0 0 1 .59-.11zM103 8.44a1 1 0 0 0-.42.08 1 1 0 0 0-.32.22 1 1 0 0 0-.2.33 1.16 1.16 0 0 0 0 .79 1 1 0 0 0 .2.33 1 1 0 0 0 .32.23 1.08 1.08 0 0 0 .83 0 1 1 0 0 0 .32-.23 1 1 0 0 0 .2-.33 1.16 1.16 0 0 0 0-.79 1 1 0 0 0-.2-.33 1 1 0 0 0-.32-.22 1 1 0 0 0-.41-.08zm0-.38a1.45 1.45 0 0 1 .58.11 1.34 1.34 0 0 1 .73.76 1.47 1.47 0 0 1 .1.54 1.43 1.43 0 0 1-.06.43 1.71 1.71 0 0 1-.17.38l-1.31 2.11h-.48l1-1.64a.37.37 0 0 1-.17.1.74.74 0 0 1-.21 0 1.64 1.64 0 0 1-.61-.11 1.38 1.38 0 0 1-.46-.3 1.29 1.29 0 0 1-.3-.45 1.49 1.49 0 0 1-.1-.56 1.47 1.47 0 0 1 .1-.54 1.36 1.36 0 0 1 .29-.45 1.34 1.34 0 0 1 .45-.31 1.49 1.49 0 0 1 .59-.11zM108.06 8.12l-1.97 4.27h-.44l1.82-3.89h-1.97v-.38h2.56zM43.77 94.38c0 .05-.13.24-.13.24l-.08.17q-.42.78-.78 1.57T42.13 98a2.66 2.66 0 0 1-.15.39l-.24.51q-.13.26-.22.49c-.06.15-.27.68-.28.74l.3-.4L42 99q.37-.6.71-1.2t.63-1.22a8.87 8.87 0 0 0 .4-1 4.91 4.91 0 0 0 .23-1v-.24c0-.04-.12 0-.2.07zm-5.68 8.47c.13-.08.25-.17.38-.26a4 4 0 0 0 .38-.28l1.27-1.13a1.66 1.66 0 0 0 .23-.27 1.78 1.78 0 0 0 .15-.28q.28-.82.56-1.62t.64-1.6q.31-.73.68-1.41c.25-.46.51-.92.8-1.37a1.82 1.82 0 0 0 .15-.27 1.7 1.7 0 0 1 .15-.26.78.78 0 0 1 .09-.14l.12-.13a.31.31 0 0 1 .22-.08.3.3 0 0 1 .23.09.48.48 0 0 1 .13.2.81.81 0 0 1 0 .32 3 3 0 0 1 0 .33 5.37 5.37 0 0 1-.27 1q-.19.51-.44 1-.35.73-.76 1.45t-.88 1.44l-.61.83-.13.15a.73.73 0 0 0-.11.16c-.21.6-.42 1.18-.62 1.77s-.37 1.19-.51 1.79q-.13.48-.23 1c-.06.33-.14.65-.23 1a1.4 1.4 0 0 0 0 .44.24.24 0 0 0 0 .11l.06.09s0 .09-.06.14a.43.43 0 0 1-.2.05h-.05A.36.36 0 0 1 39 107a.48.48 0 0 1-.07-.36v-.21a1.18 1.18 0 0 1 .05-.21c0-.23.09-.45.13-.68a6.29 6.29 0 0 1 .15-.67q.16-.74.33-1.47t.41-1.45l.11-.34-.23.21a4.48 4.48 0 0 0-.38.3l-.31.26c-.31.26-.72.54-1 .71l-.2.11a.76.76 0 0 1-.33.07h-.15a.57.57 0 0 1-.38-.22.51.51 0 0 1-.09-.33 2.9 2.9 0 0 1 .83-1.65 1.42 1.42 0 0 1 1-.44 1.08 1.08 0 0 1 .47.11.46.46 0 0 1 .21.15c.06.07.07.13 0 .18a.42.42 0 0 1-.24.12h-.13a.78.78 0 0 0-.57.21l-.14.15a5.43 5.43 0 0 0-.72 1.08.78.78 0 0 0-.08.2s-.05.1 0 .15.2-.07.31-.15zM57.61 97.69a2.7 2.7 0 0 0-.27.52c-.09.19-.18.39-.26.6a4.07 4.07 0 0 0-.21.6.8.8 0 0 0 0 .52 11.29 11.29 0 0 0 .61-1.12 5 5 0 0 0 .26-.68 1.16 1.16 0 0 0 0-.36c0-.22-.12-.19-.2-.08zm-11.5.63c-.1-.06-.5.34-.65.48a5.06 5.06 0 0 0-.73.93 5.81 5.81 0 0 0-.35.66s.29-.16.38-.22a4.71 4.71 0 0 0 .81-.75 2.63 2.63 0 0 0 .56-.81c.05-.14.07-.24 0-.3zm7.62 2.15a.81.81 0 0 0-.29.52c0 .2.16.26.26.3s.15 0 .19 0a1.08 1.08 0 0 0 .19-.73.14.14 0 0 0-.06-.11.25.25 0 0 0-.28 0zm-1.2 1.74s0 .14.1.16.5-.2.62-.32l.43-.46h-.15a.44.44 0 0 1-.4-.43V101c0-.1-.06-.11-.11-.12H53a2.5 2.5 0 0 0-.3.54 1.63 1.63 0 0 0-.09.7zm14.74-1.29c-.3.28-.64.63-.94.9l-.27.22-.29.21a1.14 1.14 0 0 1-.6.22 1.3 1.3 0 0 1-.71-.17 1.27 1.27 0 0 1-.54-.54 1.68 1.68 0 0 0-.23-.44c-.08-.05-.25.05-.34.1l-.91.61-.21.14-.2.13a.53.53 0 0 1-.24.07h-.12a11.33 11.33 0 0 0-.94.88q-.45.44-1 .89l-.27.18a1 1 0 0 1-.26.11h-.15a.68.68 0 0 1-.39-.14.51.51 0 0 1-.21-.36v-.26a.71.71 0 0 1 0-.25 15.15 15.15 0 0 1 .36-1.8 9.86 9.86 0 0 1 .65-1.76l.1-.25h-.09a9.09 9.09 0 0 0-1 .44 8.3 8.3 0 0 1-.91.44 3 3 0 0 1-.68.13 1.8 1.8 0 0 1-.26 0 4.08 4.08 0 0 1-.62.38 7.1 7.1 0 0 1-.84.38 4.75 4.75 0 0 1-1 .26l-.19.19-.3.36a2.34 2.34 0 0 1-.4.36 1.23 1.23 0 0 1-.63.2.57.57 0 0 1-.42-.17.62.62 0 0 1-.22-.4 2 2 0 0 1 0-.73v-.15l-.15.11-.2.13-1.25.87-.51.35-.51.35-.24.15-.25.14a2 2 0 0 1-.45.2 1.11 1.11 0 0 1-.33.05.67.67 0 0 1-.5-.21.54.54 0 0 1-.16-.35 1.65 1.65 0 0 1 0-.49 2.66 2.66 0 0 1 .11-.47 4.05 4.05 0 0 1 .32-.76l-.27.22-.16.12c-.33.26-.68.5-1 .73a9.34 9.34 0 0 1-1.13.64l-.28.13-.3.11a3 3 0 0 1-.53.14.88.88 0 0 1-.42-.05.9.9 0 0 1-.53-.43 1 1 0 0 1-.1-.59 3 3 0 0 1 .1-.69A5.7 5.7 0 0 1 44 100a8.71 8.71 0 0 1 .58-.79l.36-.38.36-.37a.79.79 0 0 1 .14-.14l.17-.12a1 1 0 0 1 .24-.13.68.68 0 0 1 .21 0 .35.35 0 0 1 .31.19.44.44 0 0 1 0 .3 1.3 1.3 0 0 1-.17.38 5.49 5.49 0 0 1-1.37 1.52l-.25.15-.28.16c-.12.06-.19.13-.2.21s-.15.43-.21.65a3.4 3.4 0 0 0-.12.67 1.2 1.2 0 0 0 .06.48.41.41 0 0 0 .43.25.94.94 0 0 0 .24 0 2.14 2.14 0 0 0 .49-.16l.42-.21a3.87 3.87 0 0 0 .4-.23 8.35 8.35 0 0 0 .74-.46l.69-.49.52-.4.52-.38a2.94 2.94 0 0 1 .52-.4 2 2 0 0 1 .75-.22h.2a1.16 1.16 0 0 1 .63.16c.21.13.3.28.29.45s0 .11 0 .11a.22.22 0 0 1-.17.09.21.21 0 0 1-.16-.05.54.54 0 0 0-.14-.15.48.48 0 0 0-.38-.15h-.16a.81.81 0 0 0-.29.1.91.91 0 0 0-.43.35 5.32 5.32 0 0 0-.57 1 3.59 3.59 0 0 0-.3 1c0 .13 0 .33.17.34a1.54 1.54 0 0 0 .62-.24c.19-.1.92-.6 1.11-.72q.76-.49 1.44-1c.21-.16.44-.3.67-.45l.21-.13.09-.13a1.15 1.15 0 0 1 .24-.22 1 1 0 0 1 .23-.09.42.42 0 0 1 .35.08.86.86 0 0 1 .13.14 1.3 1.3 0 0 1 .2-.18.75.75 0 0 1 .41-.17.37.37 0 0 1 .39.32.88.88 0 0 1 0 .28c0 .09 0 .19-.06.29v.18h.05a2.23 2.23 0 0 0 .89-.17 5.85 5.85 0 0 0 .66-.32 4.34 4.34 0 0 0 .48-.32 2.41 2.41 0 0 1 0-.53 3.53 3.53 0 0 1 .25-1 6.81 6.81 0 0 1 .55-1.13l.1-.17.12-.17a.67.67 0 0 1 .17-.17.43.43 0 0 1 .25-.08.29.29 0 0 1 .22.08.51.51 0 0 1 .14.34 1.17 1.17 0 0 1 0 .42 5.73 5.73 0 0 1-.87 1.85l-.16.23a.86.86 0 0 0 .47 0 7.37 7.37 0 0 0 .93-.44c.32-.16.63-.29.92-.43s.37-.16.48-.07.08.07.07.11a.88.88 0 0 1 0 .24c-.09.25-.18.51-.27.77s-.17.52-.24.77l-.31 1a7.43 7.43 0 0 0-.23 1l-.06.41a1.14 1.14 0 0 0 0 .42v.07c0 .05 0 .11.13.16h.11a.23.23 0 0 0 .13-.05l.29-.17a1.52 1.52 0 0 0 .27-.22 14.83 14.83 0 0 0 1.71-1.78l.06-.07a1 1 0 0 1 .07-.21 5.1 5.1 0 0 1 .84-1.29l.22-.21A1.19 1.19 0 0 1 63 100a1.24 1.24 0 0 1 .55-.13h.26a1.09 1.09 0 0 1 .33.12c.11.05.14.11.1.19a.21.21 0 0 1-.2.09h-.45a.63.63 0 0 0-.42.11l-.1.07a6.74 6.74 0 0 0-.66.83c-.07.1-.24.41-.24.41a1.61 1.61 0 0 0-.11.19c-.07.18.12 0 .12 0l.3-.2.73-.46.29-.18.22-.13a.36.36 0 0 1 .14 0c.13 0 .17 0 .2.1l.24.47a1.07 1.07 0 0 0 .81.7.72.72 0 0 0 .38-.07 2.32 2.32 0 0 0 .33-.19 5.7 5.7 0 0 0 .48-.39 5.46 5.46 0 0 0 .43-.44c.16-.18.3-.33.4-.46l.38-.46a1.2 1.2 0 0 1 .09-.11 7.13 7.13 0 0 0 .85-1.74c.18-.55.33-.95.52-1.43l.55-1.41v-.14l-.07-.08a2.78 2.78 0 0 0-.49 0l-.47.08-1.77.26-1.77.24-1.22.16c-.33 0-.82.05-1.15.05a2.81 2.81 0 0 0-.33 0H61.83c-.03 0 .17-.05.17-.11a.64.64 0 0 1 .17-.17.26.26 0 0 1 .15-.06.21.21 0 0 1 .13.06.49.49 0 0 0 .33.1h.39c.76 0 1.51-.12 2.23-.22l4.07-.57h.14l.05-.08a11.74 11.74 0 0 0 .34-1.26l.29-1.13a.59.59 0 0 0 0-.2.54.54 0 0 1 0-.18.74.74 0 0 1 .08-.19.13.13 0 0 1 .23-.04c.16 0 .17.05.18.08v.17a.5.5 0 0 1 0 .16l-.16.72-.22.84q-.11.43-.2.84v.12h.27l2.47-.32 1.88-.26 1-.13 1-.11 1.74-.19 2.24-.22.72-.06h.73l1.2-.08 1.2-.06h.42c.17 0 .19.07.19.11s-.05.13-.2.15h-.26l-1.67.07q-.83 0-1.68.09l-1.6.13-1.6.14-1.16.12-2.46.28-1.3.16-2.82.38-.39.06a2.67 2.67 0 0 0-.16.46l-.11.4-.75 2.45q-.45 1.38-.89 2.82t-.89 2.82l-.92 3a9.5 9.5 0 0 0-.22.93 6 6 0 0 0-.1.93 1 1 0 0 0 0 .27v.26a.46.46 0 0 0 .27.34c.18.11.11.16.08.19a.17.17 0 0 1-.13.05.52.52 0 0 1-.19 0 .7.7 0 0 1-.4-.46 2.08 2.08 0 0 1-.07-.54v-.55a10.39 10.39 0 0 1 .21-1.16q.14-.57.31-1.13.23-.72.45-1.42l.42-1.42q.27-.84.54-1.74t.54-1.74l.11-.38a4.76 4.76 0 0 1-1 1.33z"/><path class="cls-1" d="M72.14 97.63c0-.09-.07-.17-.17-.21a.38.38 0 0 0-.33 0l-.22.14-.22.16a.14.14 0 0 0-.06.13c0 .14.08.24.28.2h.09a1.18 1.18 0 0 0 .54-.26.47.47 0 0 0 .09-.15zM84.13 99s.3-.16.4-.22a4.65 4.65 0 0 0 .81-.75 3.57 3.57 0 0 0 .56-.81.25.25 0 0 0 0-.27h-.12a2.53 2.53 0 0 0-.53.5 11.3 11.3 0 0 0-.66.94l-.44.66zm-.54 2.4c.1.18.29.18.48.18a.9.9 0 0 0 .24 0 2.12 2.12 0 0 0 .49-.17l.42-.21a3.9 3.9 0 0 0 .4-.23 8 8 0 0 0 .74-.46l.69-.49.52-.4.52-.38.25-.15h.09a.2.2 0 0 1 .11 0c.07 0 .12.07 0 .15a1 1 0 0 1-.15.14l-.58.44-.59.44c-.33.26-.68.5-1 .73a9.48 9.48 0 0 1-1.13.64l-.28.13-.3.11a1.62 1.62 0 0 1-.54.1 1 1 0 0 1-.36-.06 1 1 0 0 1-.55-.43l-.09-.23a.52.52 0 0 1 0-.16V101a2.87 2.87 0 0 1 .1-.69c0-.08.06-.17.09-.26l.09-.25-.79.33-1.16.47-.5.16a4.07 4.07 0 0 1-.5.11H79.73a1.44 1.44 0 0 1-.92-.28l-.26-.2a3.24 3.24 0 0 0-.31.15 25.75 25.75 0 0 0-2.05 1.79 2 2 0 0 1-.25.21l-.28.2-.25.15a.45.45 0 0 1-.23.05c-.12 0-.16 0-.17-.05a.28.28 0 0 1-.08-.17 6.54 6.54 0 0 1 0-.66 6.38 6.38 0 0 1 .33-1.21c.06-.16.12-.32.19-.49l.08-.19.1-.22-1.42 1-1.65 1.11-.65.41-.65.38a1.88 1.88 0 0 1-.5.2 1 1 0 0 1-.25 0 .4.4 0 0 1-.37-.21.62.62 0 0 1-.09-.27v-.31a1.33 1.33 0 0 1 0-.3 12.63 12.63 0 0 1 .2-1.38 7.26 7.26 0 0 1 .43-1.35l.19-.39a.67.67 0 0 1 .17-.16.27.27 0 0 1 .19-.06c.12 0 .18.06.15.19a.67.67 0 0 1 0 .15l-.05.12a9 9 0 0 0-.48 1.67c-.1.56-.19 1.13-.25 1.71 0 .09.08.13.18.13h.16a1.72 1.72 0 0 0 .35-.12l.49-.26.47-.26 1.75-1.17q.44-.29.86-.59l.85-.59.11-.06.06-.12a.4.4 0 0 1 .18-.13.38.38 0 0 1 .15 0c.14 0 .25.05.22.21a.37.37 0 0 1 0 .14l-.3.87s-.41 1.3-.52 1.74c0 .15.12.12.3 0s1-.94 1-.94c.21-.19.41-.38.6-.57s.38-.38.6-.57a1.12 1.12 0 0 1 .22-.17.4.4 0 0 1 .21-.07c.13 0 .19.06.22.12a.39.39 0 0 0 .07.15l.08.17a.92.92 0 0 0 .82.35h.06a1.6 1.6 0 0 0 .31 0l.33-.07.36-.11.34-.13.46-.19.41-.22 1.2-.52.16-.07a5.58 5.58 0 0 1 .4-.74 9 9 0 0 1 .58-.79l.36-.38.36-.37a.75.75 0 0 1 .14-.13l.17-.13a1 1 0 0 1 .24-.13.69.69 0 0 1 .21 0 .35.35 0 0 1 .31.19.37.37 0 0 1 0 .3 1.4 1.4 0 0 0-.07.17 1.15 1.15 0 0 1-.07.16A5.16 5.16 0 0 1 84.64 99l-.25.15-.28.16c-.12.06-.19.13-.2.21s-.15.43-.21.65a4.23 4.23 0 0 0-.16.72.81.81 0 0 0 .05.49zM93.42 101.2c.39-.23 1.48-1 1.48-1a4.34 4.34 0 0 0 .45-.37 2.86 2.86 0 0 0 .35-.4 1.17 1.17 0 0 0 .17-.34c0-.23-.21-.29-.45-.19l-.17.07-.16.1a7 7 0 0 0-.6.49 7 7 0 0 0-.72.78c-.21.26-.42.53-.62.82l-.22.36.47-.29zm-3.84 7.7a.48.48 0 0 1 0-.14.46.46 0 0 1 0-.14c0-.15.08-.3.12-.45s.09-.3.12-.45a19.85 19.85 0 0 1 .52-2l.76-2.37.08-.23-.19.09a2 2 0 0 1-.26 0 .25.25 0 0 1-.21-.06.11.11 0 0 1 0-.15l.17-.14.48-.34a.67.67 0 0 0 .3-.38q.16-.48.32-1t.35-1q.22-.56.47-1.14t.48-1l.15-.24a.4.4 0 0 1 .16-.11h.1a.16.16 0 0 1 .12.08.57.57 0 0 1 0 .22l-.11.38a3.81 3.81 0 0 1-.14.38l-.57 1.4q-.29.7-.52 1.42l-.08.26s.09 0 .27-.23c.33-.45.84-1.13 1.28-1.65a8.22 8.22 0 0 1 .92-.93l.27-.21a1.82 1.82 0 0 1 .31-.18 1.13 1.13 0 0 1 .51-.12.92.92 0 0 1 .49.14.32.32 0 0 1 .14.33 1.19 1.19 0 0 1-.13.44 3.21 3.21 0 0 1-.57.63 5.21 5.21 0 0 1-.62.51l-.68.47-1.67 1.06a1.31 1.31 0 0 0-.42.43 17.51 17.51 0 0 0-1.12 2.34 23.34 23.34 0 0 0-.79 2.48q-.1.29-.18.58l-.18.58a.28.28 0 0 0 0 .16.47.47 0 0 1 0 .13.42.42 0 0 1-.07.16.2.2 0 0 1-.2.07.28.28 0 0 1-.12-.09zM102.95 91.18c-.12 0-.21.15-.23.18a19 19 0 0 0-.92 2.15q-.28.77-.57 1.55t-.55 1.56l-.09.39s.56-.71.73-1a6.26 6.26 0 0 0 .37-.6q.36-.67.66-1.33a11.49 11.49 0 0 0 .51-1.36A6.22 6.22 0 0 0 103 92c.1-.55 0-.78-.09-.83zm-4.74 15.7h-.1a.41.41 0 0 1-.29-.25.54.54 0 0 1 0-.16v-.31c0-.27 0-.53.06-.77a6 6 0 0 1 .14-.73l.59-2.41c.24-1 .51-2.06.81-3.07s.62-2 1-3q.23-.74.54-1.46l.61-1.45A12.86 12.86 0 0 1 102.6 91a.77.77 0 0 1 .09-.14l.12-.13a.29.29 0 0 1 .19-.08.26.26 0 0 1 .22.13.61.61 0 0 1 .09.27 1.5 1.5 0 0 1 0 .46v.38a6.12 6.12 0 0 1-.34 1.38q-.24.64-.53 1.27a23.337 23.337 0 0 1-1.32 2.29l-.84 1.37a2.11 2.11 0 0 0-.26.51c-.1.38-.21.75-.32 1.13s-.22.76-.32 1.13-.19.68-.26 1-.16.67-.26 1-.2.68-.28 1-.16.67-.21 1c0 .17-.07.84-.09 1a.79.79 0 0 0 .17.58.15.15 0 0 1-.08.2.28.28 0 0 1-.13 0zM109.22 101.65l-.25.22-.07.06-.52.5q-.52.53-1 1a10.44 10.44 0 0 0-.87 1.09l-.25.4-.22.4a.25.25 0 0 0 0 .15 2.78 2.78 0 0 0 1.19-.66 6.56 6.56 0 0 0 1-1.09 5.34 5.34 0 0 0 .66-1.06 4.46 4.46 0 0 0 .29-1zm5.48-8l-1.11.18-1.77.26c-.58.09-1.26.17-1.85.24l-1.19.14a9.87 9.87 0 0 1-1 0H107.07a.1.1 0 0 1 0-.15c0-.06.18-.12.25-.17a.27.27 0 0 1 .15-.06.21.21 0 0 1 .13.06.29.29 0 0 0 .25.1h.39c.76 0 1.59-.12 2.32-.22l2-.28 2-.28h.14l.05-.08a12.3 12.3 0 0 0 .34-1.21l.35-1.13a.6.6 0 0 0 0-.2.52.52 0 0 1 0-.18.75.75 0 0 1 .08-.19.13.13 0 0 1 .13-.07c.16 0 .17.05.18.08v.17a.55.55 0 0 1 0 .16l-.16.72-.22.84q-.11.43-.2.84v.17h.32l2.47-.32 2.28-.31.61-.08 1-.11 1.74-.19 2.24-.22.72-.06h.73l1.19-.08 1.2-.07h.42c.17 0 .19.07.19.11s-.05.13-.2.15H130l-1.67.07q-.83 0-1.67.09l-1.6.13-1.6.14-1.16.12-2.46.28-1.3.16-2.82.38-.39.06a2.71 2.71 0 0 0-.16.46l-.11.41-.75 2.46q-.45 1.38-.89 2.82t-.89 2.82l-.92 3a9.53 9.53 0 0 0-.22.93 6.09 6.09 0 0 0-.1.93 1 1 0 0 0 0 .27v.26a.46.46 0 0 0 .27.34c.18.11.11.16.08.19a.17.17 0 0 1-.13.05.52.52 0 0 1-.19 0 .71.71 0 0 1-.4-.46 2 2 0 0 1-.07-.54v-.55a10.68 10.68 0 0 1 .21-1.16q.14-.57.31-1.13.23-.72.45-1.42t.42-1.42q.28-.84.54-1.74c.18-.6.59-1.62.77-2.17a3 3 0 0 1-.53.66c-.41.31-1.28.86-1.7 1.16s-.94.74-1.39 1.12l-.13.11a.6.6 0 0 0-.25.43 3.56 3.56 0 0 1-.2 1 4.56 4.56 0 0 1-.47.94 6.76 6.76 0 0 1-.76 1 5.7 5.7 0 0 1-1 .87 5.15 5.15 0 0 1-.76.45 1.83 1.83 0 0 1-.38.1h.02c-.18 0-.28 0-.29-.2a.36.36 0 0 1 0-.16 1.93 1.93 0 0 1 .09-.24l.11-.22a5.1 5.1 0 0 1 .33-.53q.19-.26.41-.52a17 17 0 0 1 1.13-1.29q.61-.62 1.26-1.23a.61.61 0 0 0 .22-.5 2.76 2.76 0 0 0-.32-.89 2.51 2.51 0 0 0-.78-.75l-.24-.16-.25-.16-.26-.16-.05.08-.71.82a10.66 10.66 0 0 1-.79.79l-.27.22-.29.21a1.15 1.15 0 0 1-.6.22 1.3 1.3 0 0 1-.71-.17 1.38 1.38 0 0 1-.54-.54l-.1-.19-.13-.25c0-.05-.25.05-.34.1l-.91.61-.21.14-.2.13a.52.52 0 0 1-.24.07h-.12c-.15-.07-.26-.2 0-.66a5.34 5.34 0 0 1 .8-1.4l.22-.21a1.2 1.2 0 0 1 .28-.17 1.24 1.24 0 0 1 .55-.13h.26a1.1 1.1 0 0 1 .33.12c.11.05.14.11.1.18a.21.21 0 0 1-.2.09h-.45a.62.62 0 0 0-.42.11l-.13.1a.53.53 0 0 0-.12.13 2.78 2.78 0 0 0-.33.45c-.1.17-.2.32-.3.46l-.11.17-.11.19c0 .09 0 .08.12 0s.17-.12.3-.2l.71-.45.31-.19a1 1 0 0 1 .22-.13.28.28 0 0 1 .14 0c.13 0 .17 0 .2.1a.53.53 0 0 0 .09.19l.15.28a1.74 1.74 0 0 0 .18.29.71.71 0 0 0 .16.16l.19.15a.64.64 0 0 0 .32.11.56.56 0 0 0 .3-.06 1.7 1.7 0 0 0 .33-.19 5.47 5.47 0 0 0 .48-.39 5.37 5.37 0 0 0 .43-.44c.16-.17.3-.33.4-.46l.62-.72a.37.37 0 0 1 0-.42 1.48 1.48 0 0 1 .25-.37 4.09 4.09 0 0 1 1.18-.89.86.86 0 0 1 .37-.13h.08c.15 0 .23 0 .27.16a.28.28 0 0 1-.05.17.15.15 0 0 1-.13.07 1.05 1.05 0 0 1-.4-.09 3.38 3.38 0 0 0-1.14 1c-.16.24-.08.45.23.63l.61.41a2.66 2.66 0 0 1 1.07 1.37l.08.37.23-.2c.47-.35.86-.67 1.26-1s.82-.63 1.25-.94l.29-.2.1-.07a3.14 3.14 0 0 0 .93-1.66c.18-.55.27-1 .46-1.47l.47-1.41.09-.28z"/><path class="cls-1" d="M121.47 95.5a2.86 2.86 0 0 0-.26.52c-.09.19-.18.39-.26.6a3.67 3.67 0 0 0-.21.6.91.91 0 0 0 0 .52 11.23 11.23 0 0 0 .61-1.12 5.15 5.15 0 0 0 .26-.68 1.14 1.14 0 0 0 0-.36c0-.17-.1-.22-.2-.08zm-3.51.33a2.52 2.52 0 0 0-.53.5 9 9 0 0 0-.66.94l-.1.17a.57.57 0 0 0-.07.23v.14l.14-.11a7.28 7.28 0 0 0 .81-.75 3.55 3.55 0 0 0 .56-.81.25.25 0 0 0 0-.27h-.12zm10.76 5.37l-.07.06-.52.5q-.52.53-1 1a10.56 10.56 0 0 0-.87 1.09l-.25.4-.22.4a.25.25 0 0 0 0 .15 2.79 2.79 0 0 0 1.19-.66 6.55 6.55 0 0 0 1-1.09 5.51 5.51 0 0 0 .66-1.06 1.27 1.27 0 0 0 .17-.79v-.11l-.12.08zm-5.52-3.73c-.34.18-.49.24-.84.41a9.58 9.58 0 0 1-1 .36 1.92 1.92 0 0 1-.57.11h-.21l-.52.39-.59.44c-.33.26-.68.5-1 .73a9.55 9.55 0 0 1-1.13.64l-.28.13-.3.11a1.61 1.61 0 0 1-.54.1 1 1 0 0 1-.36-.06 1 1 0 0 1-.55-.43l-.09-.23a.51.51 0 0 1 0-.16v-.17a2.82 2.82 0 0 1 .1-.69 5.79 5.79 0 0 1 .29-.82 5.63 5.63 0 0 1 .45-.84 8.85 8.85 0 0 1 .58-.79l.36-.38.36-.37a.75.75 0 0 1 .14-.13l.17-.13a1 1 0 0 1 .24-.13.69.69 0 0 1 .21 0 .35.35 0 0 1 .31.19.36.36 0 0 1 0 .3 1.24 1.24 0 0 0-.07.17 1 1 0 0 1-.07.16 5.13 5.13 0 0 1-1.39 1.56l-.25.15-.28.16c-.12.06-.19.13-.2.21s-.15.43-.21.65a2.17 2.17 0 0 0-.12.67 2.21 2.21 0 0 0 .06.48.41.41 0 0 0 .44.25.91.91 0 0 0 .24 0 2.13 2.13 0 0 0 .49-.17l.42-.21a3.89 3.89 0 0 0 .4-.22 8.15 8.15 0 0 0 .74-.46l.69-.49.52-.4.45-.33a1.11 1.11 0 0 1-.05-.28 3 3 0 0 1 .23-1.19 7.23 7.23 0 0 1 .6-1.13l.1-.17.12-.17a.67.67 0 0 1 .17-.17.44.44 0 0 1 .25-.08.29.29 0 0 1 .22.08.51.51 0 0 1 .14.34 1.15 1.15 0 0 1 0 .42 5.72 5.72 0 0 1-.87 1.85l-.11.16a1.08 1.08 0 0 0 .43 0 5.14 5.14 0 0 0 .92-.38c.32-.16.62-.31.92-.43l.29-.08h.19c.06 0 .08.07.07.11a.9.9 0 0 1 0 .24c-.09.26-.18.51-.27.77s-.17.52-.24.77l-.31 1a7.63 7.63 0 0 0-.24 1l-.06.41a1.13 1.13 0 0 0 0 .42v.12c0 .05 0 .11.13.16h.11a.24.24 0 0 0 .13 0l.29-.17a1.45 1.45 0 0 0 .27-.22 14.79 14.79 0 0 0 1.71-1.78q.75-.93 1.46-1.85l.09-.09a.58.58 0 0 1 0-.35 1.48 1.48 0 0 1 .26-.37 4.09 4.09 0 0 1 1.18-.89.85.85 0 0 1 .37-.13h.08c.14 0 .23 0 .26.16a.28.28 0 0 1-.05.17.15.15 0 0 1-.13.07h-.39a3.39 3.39 0 0 0-1.14 1c-.16.24-.08.45.23.63l.61.41a2.67 2.67 0 0 1 1.07 1.37l.11.27h.1a.16.16 0 0 0 .14-.06c.43-.39.82-.71 1.23-1s.82-.63 1.25-.94l.29-.2.31-.2a.26.26 0 0 1 .13 0c.14 0 .17.08.09.17l-.14.12-.17.13-1.46 1.08c-.48.36-.95.74-1.39 1.12l-.13.11a.6.6 0 0 0-.25.43 3.6 3.6 0 0 1-.2 1 4.63 4.63 0 0 1-.47.94 6.68 6.68 0 0 1-.75 1 5.69 5.69 0 0 1-1 .87 5.08 5.08 0 0 1-.76.45 1.8 1.8 0 0 1-.38.1h-.12c-.11 0-.24 0-.25-.21a.34.34 0 0 1 0-.16 1.81 1.81 0 0 1 .09-.24l.11-.22a4.9 4.9 0 0 1 .33-.53q.18-.26.41-.52a17 17 0 0 1 1.14-1.29q.61-.62 1.26-1.23a.61.61 0 0 0 .22-.5 2.77 2.77 0 0 0-.32-.89 2.5 2.5 0 0 0-.78-.75l-.24-.16-.25-.16-.19-.11-.07-.06H127l-.8 1q-.38.51-.8 1t-.86.92c-.3.3-.62.59-1 .89l-.27.18a1 1 0 0 1-.26.11h-.15a.69.69 0 0 1-.39-.14.51.51 0 0 1-.21-.36v-.26a.66.66 0 0 1 0-.25 15.27 15.27 0 0 1 .36-1.8 18.69 18.69 0 0 1 .65-1.76c.14-.38-.08-.2-.12-.18z"/></g></g></svg>